# xmcd
#
# Track frame offsets:
#	150
#	18550
#	33117
#	52667
#	72453
#	92183
#	110741
#	123338
#	146920
#	162621
#	184411
#	199176
#	216167
#	229521
#	246933
#	265497
#	281776
#	297889
#
# Disc length: 4150 seconds
#
# Revision: 0
# Processed by: cddbd v1.5.2PL0 Copyright (c) Steve Scherf et al.
# Submitted via: EasyCDDAExtractor 12.0.7.1
#
DISCID=1e103412
DTITLE=Александр Дюмин - Аллея шансона
DYEAR=2011
DGENRE=Chanson
TTITLE0=Зараза, брось
TTITLE1=Человек с гитарою
TTITLE2=Три дороги
TTITLE3=Фотографии друзей
TTITLE4=Белый туман
TTITLE5=Отпусти меня
TTITLE6=Наказание невиновного
TTITLE7=Белая
TTITLE8=Байкал (дуэт с Жекой)
TTITLE9=Рыбак
TTITLE10=Возвращение
TTITLE11=На поле маковом
TTITLE12=Тополя
TTITLE13=Ярап
TTITLE14=Цветы из камня
TTITLE15=Правильный путь
TTITLE16=Партаки
TTITLE17=Босяк
EXTD=
EXTT0=
EXTT1=
EXTT2=
EXTT3=
EXTT4=
EXTT5=
EXTT6=
EXTT7=
EXTT8=
EXTT9=
EXTT10=
EXTT11=
EXTT12=
EXTT13=
EXTT14=
EXTT15=
EXTT16=
EXTT17=
PLAYORDER=
